<?xml version="1.0" encoding="utf-8"?>
<svg version="1.1" xmlns="http://www.w3.org/2000/svg" xmlns:xlink="http://www.w3.org/1999/xlink" x="0px" y="0px"
     viewBox="0 0 1000 1000" enable-background="new 0 0 1000 1000" xml:space="preserve">
<g>
    <g transform="translate(0.000000,511.000000) scale(0.100000,-0.100000)" fill="#4b4949">
        <path
            d="M2989,4839.8C1685.4,4035.2,826.7,2778.1,555.9,1281.1c-85.1-464.2-85.1-1322.9,0-1787.1C846-2107.5,1909.8-3527.1,3360.3-4250.4c1172.1-587.9,2572.3-700.1,3856.6-313.3c580.2,174.1,1439,649.9,1829.6,1017.3c131.5,123.8,143.1,150.9,85.1,239.8c-27.1,46.4-123.8,54.2-530,46.4c-2386.6-58-4355.6,1044.4-5249.1,2935.9c-348.1,735-499,1466.1-499,2433.1c3.9,936.1,139.2,1601.4,537.7,2603.3c73.5,185.7,73.5,189.6,0,243.7c-42.6,30.9-89,54.2-100.6,54.2C3279.1,5010,3143.7,4932.6,2989,4839.8z"/>
        <path
            d="M6667.6,4538.1c-23.2-27.1-89-158.6-147-290.1c-104.4-235.9-108.3-239.8-286.2-266.9c-580.2-81.2-607.3-123.8-294-441l228.2-228.2l-50.3-309.4c-27.1-170.2-38.7-324.9-23.2-348.1c42.6-73.5,189.6-46.4,425.5,89l232.1,127.7l259.2-127.7c429.4-216.6,487.4-177.9,398.4,274.6l-50.3,270.8l235.9,243.7c324.9,324.9,297.9,367.5-286.2,448.7c-170.2,27.1-181.8,34.8-290.1,263C6861,4576.8,6764.3,4658,6667.6,4538.1z"/>
        <path
            d="M8857,929.1c-50.3-81.2-112.2-135.4-158.6-135.4c-104.5,0-224.4-69.6-224.4-131.5c0-27.1,46.4-89,100.6-143.1c81.3-77.4,92.9-116,73.5-220.5c-34.8-193.4,30.9-251.4,197.3-174.1c119.9,58,143.1,58,259.2,3.9c178-85.1,263-34.8,232.1,143.1c-15.4,104.4,0,154.7,81.3,255.3c58,65.7,96.7,143.1,89,166.3c-7.7,23.2-85.1,58-170.2,77.4c-123.8,27.1-170.2,61.9-220.5,166.3C9038.8,1099.3,8957.6,1099.3,8857,929.1z"/></g></g>
</svg>
