<svg id="Layer_1" data-name="Layer 1" xmlns="http://www.w3.org/2000/svg" viewBox="0 0 322.84 316.92"><defs><style>.cls-1,.cls-2{fill:none;stroke:#fff;stroke-linecap:round;stroke-miterlimit:10;}.cls-1{stroke-width:3px;}.cls-2{stroke-width:2px;}</style></defs><title>inNout</title><line class="cls-1" x1="20.37" y1="303.58" x2="321.34" y2="2.62"/><path class="cls-1" d="M433.74,416.78a78.34,78.34,0,1,1,99.14-101" transform="translate(-344.97 -225.9)"/><path class="cls-1" d="M407.24,387.42a68.62,68.62,0,0,1,7.34-96.77" transform="translate(-344.97 -225.9)"/><path class="cls-1" d="M483.09,240.46s24.5,33.24,33.61,23.15-18.41-36.21-18.41-36.21" transform="translate(-344.97 -225.9)"/><line class="cls-1" x1="145.69" y1="8.06" x2="165.81" y2="31.49"/><polyline class="cls-1" points="206.83 71.81 171.4 37.99 200.51 77.33"/><path class="cls-1" d="M417.32,433l-40.79-44.89-27.16-30.9a1.63,1.63,0,0,0-2.78,1.62L362.11,399a1.71,1.71,0,0,0,2.67.75l6.09-8.62c.69-.6,2.6,2.2,3.21,2.94l36.72,47.15" transform="translate(-344.97 -225.9)"/><path class="cls-2" d="M595.08,427.52s-17.54,14.55-6,23.75,22.22-9,22.22-9" transform="translate(-344.97 -225.9)"/><line class="cls-2" x1="258.18" y1="208.94" x2="246.9" y2="221.55"/><path class="cls-2" d="M587.13,454.57a1.08,1.08,0,0,0-1.62-1.39L554,480c-1,.87-.31,3.06,1.56,4.76l5,4.54c1.91,1.73,4.18,2.2,4.9,1Z" transform="translate(-344.97 -225.9)"/><path class="cls-2" d="M586.88,420.91l-26.44,6c-.73.16-.53,1.23.39,2.06l9.19,6.44c.75.68-.78,1.78-1.15,2.15l-30.4,30.39c-.38.38-.07,1.24.67,1.91l6.05,5.49c.74.68,1.63.89,2,.47l27.45-35.24,14.62-17.11C589.9,422.67,588,420.65,586.88,420.91Z" transform="translate(-344.97 -225.9)"/><path class="cls-1" d="M586.23,361.89l73.27,66.46a6,6,0,0,1,.65,8.14L578.58,539.08a5.88,5.88,0,0,1-8.57.71l-84.59-76.72a6,6,0,0,1-.19-8.66l92.88-92.33A5.89,5.89,0,0,1,586.23,361.89Z" transform="translate(-344.97 -225.9)"/><path class="cls-1" d="M638.76,418.29s41.39-46.26,22.13-65l-.68-.63c-20.5-17.33-61.89,28.92-61.89,28.92" transform="translate(-344.97 -225.9)"/></svg>