<svg id="Layer_1" data-name="Layer 1" xmlns="http://www.w3.org/2000/svg" viewBox="0 0 298.55 304.66"><defs><style>.cls-1{fill:none;stroke:#fff;stroke-linecap:round;stroke-miterlimit:10;stroke-width:3px;}.cls-2{fill:#fff;}</style></defs><title>burger</title><path class="cls-1" d="M412.35,284.57s-60.81,55.15-39.6,82c0,0,14.14,15.56,33.94,14.15H617.14c19.8,1.41,33.94-14.15,33.94-14.15,21.21-26.86-39.59-82-39.59-82S531.13,216.69,442,266.18" transform="translate(-363.47 -246.61)"/><line class="cls-1" x1="66.55" y1="24.52" x2="59.48" y2="30.17"/><line class="cls-1" x1="1.5" y1="158.86" x2="297.05" y2="158.86"/><path class="cls-1" d="M365,426s15.56-5.66,31.11,19.8,55.15-17,55.15-17,18.39-11.31,35.36,8.48,36.76,19.8,55.15-4.24,49.49,14.14,49.49,14.14,17,17,41-7.07,28.28-12.73,28.28-12.73" transform="translate(-363.47 -246.61)"/><path class="cls-1" d="M380.39,524.26" transform="translate(-363.47 -246.61)"/><path class="cls-1" d="M591.23,549.71s39.6-4.24,53.74-24c22.39-31.35,4.94-45.95-6.25-52.14a24.29,24.29,0,0,0-11.83-3H392.41a11.91,11.91,0,0,0-6.73,2.08c-9.26,6.34-32.83,26.81-3.74,55.9,0,0,21.21,22.63,46.67,21.21s106.06,0,106.06,0" transform="translate(-363.47 -246.61)"/><path class="cls-2" d="M434.26,320.63s0,28.28-14.14,24S425.78,320.63,434.26,320.63Z" transform="translate(-363.47 -246.61)"/><path class="cls-2" d="M480.93,283.86s0,28.28-14.14,24S472.45,283.86,480.93,283.86Z" transform="translate(-363.47 -246.61)"/><path class="cls-2" d="M514.46,317.36s16.44,23,2.47,27.78S507.56,322.29,514.46,317.36Z" transform="translate(-363.47 -246.61)"/><path class="cls-2" d="M543.68,282.19s25.49,12.25,15.55,23.16S540,289.84,543.68,282.19Z" transform="translate(-363.47 -246.61)"/><path class="cls-2" d="M591.76,319s25.49,12.24,15.55,23.16S588.08,326.61,591.76,319Z" transform="translate(-363.47 -246.61)"/><line class="cls-1" x1="189.44" y1="302.69" x2="210.51" y2="302.69"/></svg>