<svg id="Layer_1" data-name="Layer 1" xmlns="http://www.w3.org/2000/svg" viewBox="0 0 301.19 334.32"><defs><style>.cls-1,.cls-2{fill:none;stroke:#fff;stroke-miterlimit:10;stroke-width:3px;}.cls-1{stroke-linecap:round;}.cls-3{fill:#fff;}</style></defs><title>clock</title><path class="cls-1" d="M366,430.76A149.12,149.12,0,0,1,606.77,285.53" transform="translate(-361.5 -216.99)"/><path class="cls-1" d="M645.42,333.91A149.13,149.13,0,1,1,370.7,448.13" transform="translate(-361.5 -216.99)"/><path class="cls-2" d="M491.39,251.62V229a10.48,10.48,0,0,1,10.48-10.48h20.45A10.48,10.48,0,0,1,532.8,229v22.65" transform="translate(-361.5 -216.99)"/><line class="cls-1" x1="150.6" y1="51.2" x2="150.6" y2="80.19"/><line class="cls-1" x1="150.6" y1="51.2" x2="150.6" y2="80.19"/><line class="cls-1" x1="216.92" y1="68.99" x2="202.41" y2="94.09"/><line class="cls-1" x1="265.44" y1="117.59" x2="240.32" y2="132.06"/><line class="cls-1" x1="283.12" y1="183.95" x2="254.13" y2="183.9"/><line class="cls-1" x1="265.22" y1="250.25" x2="240.15" y2="235.7"/><line class="cls-1" x1="216.54" y1="298.69" x2="202.11" y2="273.54"/><line class="cls-1" x1="150.15" y1="316.26" x2="150.25" y2="287.27"/><line class="cls-1" x1="83.88" y1="298.24" x2="98.47" y2="273.19"/><line class="cls-1" x1="85.04" y1="68.55" x2="99.38" y2="93.74"/><line class="cls-1" x1="36.13" y1="116.93" x2="61.17" y2="131.54"/><line class="cls-1" x1="18.07" y1="183.31" x2="47.06" y2="183.4"/><line class="cls-1" x1="35.71" y1="249.8" x2="60.84" y2="235.35"/><path class="cls-3" d="M571.46,391.41c-6.72,1.62-13.68,1.77-20.48,2.18s-13.61.91-20.46,1.15-12-.11-18.59.42l-1.47-.06a8.28,8.28,0,1,0-3.57,16.18,8.16,8.16,0,0,0,3.75-.08,119.44,119.44,0,0,0,21.28-1.09,123.22,123.22,0,0,0,21.43-4.75,77.32,77.32,0,0,0,19.87-10.22S581.06,389.1,571.46,391.41Z" transform="translate(-361.5 -216.99)"/><path class="cls-3" d="M490.48,341.5c2.24,6.54,3,13.45,4.1,20.18s2.19,13.47,3.07,20.27,1,11.91,2.18,18.46l.08,1.47a8.28,8.28,0,1,0,16.44,2,8.16,8.16,0,0,0-.43-3.73,120.8,120.8,0,0,0-3.09-21.08,124.55,124.55,0,0,0-6.75-20.88A77.88,77.88,0,0,0,494,339.39S487.27,332.16,490.48,341.5Z" transform="translate(-361.5 -216.99)"/><circle class="cls-3" cx="257.22" cy="77.66" r="3.58"/><circle class="cls-3" cx="267.08" cy="89.31" r="3.58"/><circle class="cls-3" cx="277.83" cy="103.64" r="3.58"/></svg>